<svg width="27" height="28" viewBox="0 0 27 28" fill="none" xmlns="http://www.w3.org/2000/svg">
<g clip-path="url(#clip0)">
<path fill-rule="evenodd" clip-rule="evenodd" d="M13.6509 0.666748C6.48466 0.666748 0.675293 6.27767 0.675293 13.1991C0.675293 20.1205 6.48466 25.7314 13.6509 25.7314C16.7158 25.7314 19.5326 24.7051 21.7528 22.9888L25.9703 27.0516L26.0825 27.1449C26.4741 27.4248 27.0292 27.3929 27.3835 27.0498C27.7733 26.6724 27.7724 26.0613 27.3817 25.6849L23.2138 21.6698C25.333 19.4392 26.6265 16.4651 26.6265 13.1991C26.6265 6.27767 20.8171 0.666748 13.6509 0.666748ZM13.6509 2.59707C19.7133 2.59707 24.6279 7.34376 24.6279 13.1991C24.6279 19.0544 19.7133 23.8011 13.6509 23.8011C7.58845 23.8011 2.67388 19.0544 2.67388 13.1991C2.67388 7.34376 7.58845 2.59707 13.6509 2.59707Z" fill="#C9C9C9"/>
</g>
<defs>
<clipPath id="clip0">
<rect width="27" height="28" fill="white"/>
</clipPath>
</defs>
</svg>
